<svg width="267" height="250" viewBox="0 0 267 250" fill="none" xmlns="http://www.w3.org/2000/svg">
<g clip-path="url(#clip0_447_690)">
<path d="M125.877 2.08568L117.706 6.55645L17.0483 61.6374L8.87812 66.1082C4.9137 68.2834 1.97148 71.9468 0.69696 76.2949C-0.577562 80.643 -0.0803065 85.3205 2.07964 89.3014L77.0373 227.081C79.2062 231.057 82.8591 234.008 87.1945 235.286C91.53 236.564 96.194 236.066 100.163 233.9L100.184 233.888L217.141 169.889L217.162 169.877C221.126 167.702 224.068 164.038 225.343 159.69C226.617 155.342 226.12 150.665 223.96 146.684L149.002 8.90398C146.834 4.92803 143.181 1.97725 138.845 0.69901C134.51 -0.57923 129.846 -0.080539 125.877 2.08568Z" fill="#EEEEEE"/>
<path d="M128.227 6.40543L118.55 11.7008L20.9051 65.1328L11.2283 70.428C8.40511 71.977 6.30988 74.5858 5.40225 77.6822C4.49463 80.7786 4.84874 84.1096 6.38689 86.9444L81.3446 224.724C82.8891 227.556 85.4904 229.657 88.5778 230.567C91.6651 231.478 94.9865 231.122 97.8131 229.58L97.8342 229.568L214.79 165.569L214.812 165.557C217.635 164.008 219.73 161.399 220.638 158.303C221.545 155.207 221.191 151.876 219.653 149.041L144.695 11.261C143.151 8.42961 140.549 6.32829 137.462 5.41801C134.375 4.50774 131.053 4.86285 128.227 6.40543Z" fill="white"/>
<path d="M129.84 49.1724L86.22 73.0417C85.5592 73.4033 84.7822 73.4868 84.06 73.2739C83.3378 73.061 82.7295 72.569 82.3689 71.9063C82.0084 71.2435 81.9251 70.4643 82.1374 69.74C82.3497 69.0157 82.8403 68.4056 83.5011 68.044L127.121 44.1747C127.782 43.8131 128.559 43.7295 129.281 43.9425C130.003 44.1554 130.612 44.6473 130.972 45.3101C131.333 45.9728 131.416 46.7521 131.204 47.4764C130.992 48.2007 130.501 48.8108 129.84 49.1724Z" fill="#EEEEEE"/>
<path d="M144.706 51.9819L90.8083 81.4753C90.1474 81.8369 89.3705 81.9205 88.6482 81.7075C87.926 81.4946 87.3177 81.0026 86.9572 80.3399C86.5966 79.6772 86.5133 78.8979 86.7257 78.1736C86.938 77.4493 87.4285 76.8392 88.0893 76.4776L141.987 46.9841C142.315 46.8051 142.674 46.6924 143.044 46.6526C143.415 46.6128 143.79 46.6465 144.147 46.7519C144.505 46.8574 144.838 47.0324 145.129 47.2671C145.419 47.5017 145.66 47.7914 145.838 48.1196C146.017 48.4477 146.129 48.8079 146.169 49.1796C146.209 49.5513 146.175 49.9272 146.07 50.2859C145.965 50.6445 145.79 50.9789 145.556 51.2699C145.322 51.5609 145.033 51.8028 144.706 51.9819Z" fill="#EEEEEE"/>
<path opacity="0.2" d="M68.2874 63.1058L28.0721 85.1119C27.7556 85.2852 27.5206 85.5776 27.4189 85.9246C27.3172 86.2716 27.357 86.645 27.5297 86.9625L44.6544 118.439C44.8272 118.757 45.1187 118.993 45.4647 119.095C45.8107 119.197 46.183 119.157 46.4996 118.984L86.7149 96.9774C87.0315 96.804 87.2664 96.5117 87.3682 96.1647C87.4699 95.8177 87.43 95.4443 87.2573 95.1268L70.1327 63.6499C69.9598 63.3324 69.6684 63.0967 69.3224 62.9947C68.9763 62.8926 68.6041 62.9326 68.2874 63.1058Z" fill="#4CD3A4"/>
<path d="M151.483 89.1115L92.3181 121.487C91.9909 121.666 91.6318 121.779 91.2612 121.819C90.8906 121.859 90.5157 121.825 90.1581 121.719C89.8005 121.614 89.4671 121.439 89.177 121.204C88.8868 120.97 88.6456 120.68 88.4671 120.352C88.2885 120.024 88.1762 119.663 88.1365 119.292C88.0967 118.92 88.1304 118.544 88.2355 118.186C88.3407 117.827 88.5152 117.493 88.7492 117.202C88.9831 116.911 89.272 116.669 89.5992 116.49L148.764 84.1138C149.425 83.7522 150.202 83.6687 150.924 83.8816C151.647 84.0945 152.255 84.5865 152.616 85.2492C152.976 85.9119 153.059 86.6912 152.847 87.4155C152.635 88.1398 152.144 88.7499 151.483 89.1115Z" fill="#EEEEEE"/>
<path d="M166.35 91.921L96.9064 129.921C96.2456 130.282 95.4686 130.366 94.7464 130.153C94.0241 129.94 93.4158 129.448 93.0553 128.785C92.6947 128.123 92.6114 127.343 92.8238 126.619C93.0361 125.895 93.5266 125.285 94.1874 124.923L163.631 86.9233C164.291 86.5617 165.068 86.4781 165.791 86.6911C166.513 86.904 167.121 87.396 167.482 88.0587C167.842 88.7214 167.926 89.5007 167.713 90.225C167.501 90.9493 167.01 91.5594 166.35 91.921Z" fill="#EEEEEE"/>
<path d="M69.7852 148.002C76.4357 148.002 81.827 142.595 81.827 135.925C81.827 129.255 76.4357 123.848 69.7852 123.848C63.1347 123.848 57.7434 129.255 57.7434 135.925C57.7434 142.595 63.1347 148.002 69.7852 148.002Z" fill="#EEEEEE"/>
<path d="M249.956 58.8575H116.675C112.156 58.8626 107.823 60.6652 104.628 63.8699C101.433 67.0745 99.6354 71.4195 99.6303 75.9516V232.906C99.6354 237.438 101.433 241.783 104.628 244.988C107.823 248.192 112.156 249.995 116.675 250H249.956C254.474 249.995 258.807 248.192 262.002 244.988C265.198 241.783 266.995 237.438 267 232.906V75.9516C266.995 71.4195 265.198 67.0745 262.002 63.8699C258.807 60.6652 254.474 58.8626 249.956 58.8575Z" fill="#EEEEEE"/>
<path d="M249.956 63.7785H116.675C113.457 63.7821 110.372 65.0658 108.096 67.3479C105.821 69.63 104.541 72.7242 104.537 75.9516V232.906C104.541 236.133 105.821 239.228 108.096 241.51C110.372 243.792 113.457 245.075 116.675 245.079H249.956C253.174 245.075 256.259 243.792 258.534 241.51C260.81 239.227 262.09 236.133 262.093 232.906V75.9516C262.09 72.7242 260.81 69.6301 258.534 67.348C256.259 65.0659 253.174 63.7822 249.956 63.7785Z" fill="white"/>
<path d="M230.948 102.096H181.257C180.504 102.096 179.782 101.796 179.25 101.262C178.718 100.728 178.418 100.004 178.418 99.2492C178.418 98.4942 178.718 97.7701 179.25 97.2363C179.782 96.7025 180.504 96.4026 181.257 96.4026H230.948C231.321 96.4021 231.69 96.4755 232.035 96.6183C232.379 96.7612 232.693 96.9708 232.957 97.2352C233.22 97.4996 233.43 97.8135 233.573 98.1591C233.716 98.5046 233.789 98.8751 233.789 99.2492C233.789 99.6233 233.716 99.9937 233.573 100.339C233.43 100.685 233.22 100.999 232.957 101.263C232.693 101.528 232.379 101.737 232.035 101.88C231.69 102.023 231.321 102.096 230.948 102.096Z" fill="#EEEEEE"/>
<path d="M242.656 111.703H181.257C180.504 111.703 179.782 111.403 179.25 110.869C178.718 110.336 178.418 109.611 178.418 108.856C178.418 108.102 178.718 107.377 179.25 106.844C179.782 106.31 180.504 106.01 181.257 106.01H242.656C243.409 106.01 244.13 106.31 244.663 106.844C245.195 107.377 245.494 108.102 245.494 108.856C245.494 109.611 245.195 110.336 244.663 110.869C244.13 111.403 243.409 111.703 242.656 111.703Z" fill="#EEEEEE"/>
<path opacity="0.2" d="M170.26 84.7596H124.448C124.088 84.7597 123.742 84.9034 123.487 85.1592C123.232 85.415 123.088 85.7619 123.088 86.1236V121.981C123.088 122.343 123.232 122.69 123.487 122.945C123.742 123.201 124.088 123.345 124.448 123.345H170.26C170.621 123.345 170.967 123.201 171.222 122.945C171.477 122.69 171.62 122.343 171.62 121.981V86.1236C171.62 85.7619 171.477 85.415 171.222 85.1592C170.967 84.9034 170.621 84.7597 170.26 84.7596Z" fill="#4CD3A4"/>
<path d="M230.873 147.552H163.474C163.101 147.552 162.732 147.479 162.387 147.336C162.043 147.192 161.73 146.983 161.467 146.718C161.203 146.454 160.994 146.14 160.851 145.795C160.709 145.45 160.635 145.079 160.635 144.706C160.635 144.332 160.709 143.962 160.851 143.616C160.994 143.271 161.203 142.957 161.467 142.693C161.73 142.428 162.043 142.219 162.387 142.076C162.732 141.933 163.101 141.859 163.474 141.859H230.873C231.625 141.86 232.346 142.16 232.878 142.694C233.409 143.228 233.708 143.951 233.708 144.706C233.708 145.46 233.409 146.184 232.878 146.717C232.346 147.251 231.625 147.551 230.873 147.552Z" fill="#EEEEEE"/>
<path d="M242.581 157.16H163.474C163.101 157.16 162.731 157.087 162.386 156.944C162.042 156.801 161.728 156.591 161.464 156.327C161.201 156.063 160.991 155.749 160.848 155.403C160.706 155.057 160.632 154.687 160.632 154.313C160.632 153.939 160.706 153.568 160.848 153.223C160.991 152.877 161.201 152.563 161.464 152.299C161.728 152.035 162.042 151.825 162.386 151.682C162.731 151.539 163.101 151.466 163.474 151.466H242.581C242.954 151.466 243.323 151.539 243.668 151.682C244.013 151.825 244.326 152.035 244.59 152.299C244.854 152.563 245.063 152.877 245.206 153.223C245.349 153.568 245.423 153.939 245.423 154.313C245.423 154.687 245.349 155.057 245.206 155.403C245.063 155.749 244.854 156.063 244.59 156.327C244.326 156.591 244.013 156.801 243.668 156.944C243.323 157.087 242.954 157.16 242.581 157.16Z" fill="#EEEEEE"/>
<path d="M230.873 182.082H163.474C162.721 182.082 161.999 181.783 161.467 181.249C160.934 180.715 160.635 179.991 160.635 179.236C160.635 178.481 160.934 177.757 161.467 177.223C161.999 176.689 162.721 176.389 163.474 176.389H230.873C231.626 176.389 232.347 176.689 232.88 177.223C233.412 177.757 233.711 178.481 233.711 179.236C233.711 179.991 233.412 180.715 232.88 181.249C232.347 181.783 231.626 182.082 230.873 182.082Z" fill="#EEEEEE"/>
<path d="M242.581 191.69H163.474C162.721 191.69 161.999 191.39 161.467 190.856C160.934 190.322 160.635 189.598 160.635 188.843C160.635 188.088 160.934 187.364 161.467 186.83C161.999 186.296 162.721 185.997 163.474 185.997H242.581C243.334 185.997 244.056 186.296 244.588 186.83C245.12 187.364 245.419 188.088 245.419 188.843C245.419 189.598 245.12 190.322 244.588 190.856C244.056 191.39 243.334 191.69 242.581 191.69Z" fill="#EEEEEE"/>
<path d="M136.798 161.479C143.449 161.479 148.84 156.072 148.84 149.402C148.84 142.733 143.449 137.326 136.798 137.326C130.148 137.326 124.756 142.733 124.756 149.402C124.756 156.072 130.148 161.479 136.798 161.479Z" fill="#EEEEEE"/>
<path d="M136.798 196.289C143.449 196.289 148.84 190.882 148.84 184.212C148.84 177.542 143.449 172.135 136.798 172.135C130.148 172.135 124.756 177.542 124.756 184.212C124.756 190.882 130.148 196.289 136.798 196.289Z" fill="#EEEEEE"/>
<path d="M230.873 216.892H163.474C162.721 216.892 161.999 216.592 161.467 216.058C160.934 215.525 160.635 214.8 160.635 214.045C160.635 213.291 160.934 212.566 161.467 212.033C161.999 211.499 162.721 211.199 163.474 211.199H230.873C231.626 211.199 232.347 211.499 232.88 212.033C233.412 212.566 233.711 213.291 233.711 214.045C233.711 214.8 233.412 215.525 232.88 216.058C232.347 216.592 231.626 216.892 230.873 216.892Z" fill="#EEEEEE"/>
<path d="M242.581 226.499H163.474C162.721 226.499 161.999 226.2 161.467 225.666C160.934 225.132 160.635 224.408 160.635 223.653C160.635 222.898 160.934 222.174 161.467 221.64C161.999 221.106 162.721 220.806 163.474 220.806H242.581C243.334 220.806 244.056 221.106 244.588 221.64C245.12 222.174 245.419 222.898 245.419 223.653C245.419 224.408 245.12 225.132 244.588 225.666C244.056 226.2 243.334 226.499 242.581 226.499Z" fill="#EEEEEE"/>
<path d="M136.798 231.098C143.449 231.098 148.84 225.692 148.84 219.022C148.84 212.352 143.449 206.945 136.798 206.945C130.148 206.945 124.756 212.352 124.756 219.022C124.756 225.692 130.148 231.098 136.798 231.098Z" fill="#EEEEEE"/>
</g>
<defs>
<clipPath id="clip0_447_690">
<rect width="267" height="250" fill="white"/>
</clipPath>
</defs>
</svg>
