<svg width="247" height="220" viewBox="0 0 247 220" fill="none" xmlns="http://www.w3.org/2000/svg">
<g clip-path="url(#clip0_447_768)">
<path d="M205.531 38.5832C205.526 38.5832 205.522 38.5846 205.517 38.5848V11.185C205.517 8.21856 204.341 5.37361 202.249 3.27601C200.156 1.17842 197.318 0 194.358 0H108.777C105.818 0 102.98 1.17842 100.887 3.27601C98.7943 5.37361 97.6187 8.21856 97.6186 11.185V25.2316C97.3824 25.2366 97.1575 25.3342 96.9921 25.5034C96.8267 25.6726 96.734 25.9 96.7338 26.1369V33.0943C96.734 33.3311 96.8267 33.5585 96.9921 33.7277C97.1575 33.8969 97.3824 33.9944 97.6186 33.9994V41.2879H97.5733C97.4544 41.2879 97.3367 41.3114 97.2269 41.357C97.1171 41.4026 97.0173 41.4694 96.9332 41.5537C96.8492 41.6379 96.7825 41.7379 96.737 41.848C96.6916 41.9581 96.6681 42.0761 96.6682 42.1952V55.6491C96.6681 55.7683 96.6916 55.8863 96.737 55.9963C96.7825 56.1064 96.8492 56.2064 96.9332 56.2907C97.0173 56.3749 97.1171 56.4418 97.2269 56.4874C97.3367 56.5329 97.4544 56.5564 97.5733 56.5564H97.6186V61.8999H97.6045C97.4857 61.8999 97.368 61.9233 97.2582 61.9689C97.1483 62.0145 97.0486 62.0813 96.9645 62.1656C96.8805 62.2498 96.8138 62.3498 96.7683 62.4599C96.7228 62.57 96.6994 62.688 96.6994 62.8071V76.3926C96.6994 76.5118 96.7228 76.6298 96.7683 76.7398C96.8138 76.8499 96.8805 76.9499 96.9645 77.0342C97.0486 77.1184 97.1483 77.1853 97.2582 77.2309C97.368 77.2764 97.4857 77.2999 97.6045 77.2999H97.6186V208.62C97.6187 211.586 98.7943 214.431 100.887 216.529C102.98 218.627 105.818 219.805 108.777 219.805H194.358C197.318 219.805 200.156 218.627 202.249 216.529C204.341 214.431 205.517 211.586 205.517 208.62V65.2266C205.522 65.2266 205.526 65.228 205.531 65.228C205.743 65.228 205.952 65.1862 206.148 65.105C206.343 65.0239 206.521 64.9049 206.671 64.7549C206.82 64.6049 206.939 64.4268 207.02 64.2308C207.101 64.0347 207.143 63.8247 207.143 63.6125V40.1989C207.143 39.7704 206.973 39.3595 206.671 39.0565C206.369 38.7535 205.959 38.5833 205.531 38.5832Z" fill="#EEEEEE"/>
<path d="M198.854 14.316V205.486C198.853 207.764 197.95 209.948 196.343 211.558C194.736 213.169 192.557 214.073 190.284 214.073H112.851C110.579 214.073 108.4 213.169 106.793 211.558C105.186 209.948 104.282 207.764 104.281 205.486V14.316C104.281 12.0377 105.184 9.85278 106.792 8.24182C108.399 6.63086 110.578 5.72583 112.851 5.72583H124.438V7.23325C124.439 9.10895 125.183 10.9076 126.506 12.2339C127.829 13.5602 129.624 14.3057 131.495 14.3066H170.89C172.759 14.3024 174.55 13.5553 175.87 12.2293C177.19 10.9032 177.931 9.1065 177.931 7.23325V5.7415H190.284C192.555 5.74149 194.732 6.64437 196.339 8.25195C197.945 9.85952 198.85 12.0404 198.854 14.316Z" fill="white"/>
<path d="M73.2905 107.269C72.8326 107.091 72.3414 107.016 71.8515 107.049C71.3616 107.083 70.8849 107.223 70.4549 107.461C70.025 107.699 69.6524 108.028 69.3632 108.426C69.074 108.823 68.8753 109.28 68.7812 109.763L41.1878 124.802L46.0393 130.275L71.6648 113.791C72.4849 113.896 73.3148 113.695 73.9973 113.228C74.6798 112.76 75.1674 112.058 75.3678 111.254C75.5682 110.45 75.4674 109.6 75.0846 108.866C74.7017 108.131 74.0634 107.563 73.2905 107.269Z" fill="#FFB8B8"/>
<path d="M66.2532 215.474L69.6915 213.245L62.7496 198.891L57.6748 202.181L66.2532 215.474Z" fill="#FFB8B8"/>
<path d="M78.3878 212.146L67.5815 219.152L64.8809 214.967L71.6682 210.567C72.7341 209.876 74.0302 209.637 75.2715 209.904C76.5127 210.171 77.5974 210.921 78.2868 211.99L78.3878 212.146Z" fill="black"/>
<path d="M27.6737 215.993H31.7686L33.7174 200.161H27.6737V215.993Z" fill="#FFB8B8"/>
<path d="M39.6661 219.804H26.7963V214.82H34.8796C35.5082 214.82 36.1306 214.944 36.7113 215.185C37.2921 215.426 37.8197 215.78 38.2642 216.225C38.7087 216.671 39.0612 217.2 39.3018 217.782C39.5423 218.364 39.6661 218.988 39.6661 219.618V219.804Z" fill="black"/>
<path d="M121.624 31.0235H113.182C112.975 31.0235 112.776 30.941 112.63 30.794C112.483 30.6471 112.401 30.4478 112.401 30.24C112.401 30.0322 112.483 29.8329 112.63 29.686C112.776 29.5391 112.975 29.4565 113.182 29.4565H121.624C121.831 29.4565 122.03 29.5391 122.177 29.686C122.323 29.8329 122.406 30.0322 122.406 30.24C122.406 30.4478 122.323 30.6471 122.177 30.794C122.03 30.941 121.831 31.0235 121.624 31.0235Z" fill="#3F3D56"/>
<path d="M121.624 33.2174H113.182C112.975 33.2174 112.776 33.1348 112.63 32.9879C112.483 32.8409 112.401 32.6417 112.401 32.4339C112.401 32.2261 112.483 32.0268 112.63 31.8799C112.776 31.7329 112.975 31.6504 113.182 31.6504H121.624C121.831 31.6504 122.03 31.7329 122.177 31.8799C122.323 32.0268 122.406 32.2261 122.406 32.4339C122.406 32.6417 122.323 32.8409 122.177 32.9879C122.03 33.1348 121.831 33.2174 121.624 33.2174Z" fill="#3F3D56"/>
<path d="M121.624 35.411H113.182C112.975 35.411 112.776 35.3284 112.63 35.1815C112.483 35.0346 112.401 34.8353 112.401 34.6275C112.401 34.4197 112.483 34.2204 112.63 34.0735C112.776 33.9265 112.975 33.844 113.182 33.844H121.624C121.831 33.844 122.03 33.9265 122.177 34.0735C122.323 34.2204 122.406 34.4197 122.406 34.6275C122.406 34.8353 122.323 35.0346 122.177 35.1815C122.03 35.3284 121.831 35.411 121.624 35.411Z" fill="#3F3D56"/>
<path d="M187.061 33.233H186.776L186.667 33.1421C187.026 32.7127 187.223 32.1701 187.223 31.6096C187.221 31.1485 187.082 30.6984 186.824 30.3164C186.567 29.9343 186.202 29.6374 185.776 29.4632C185.35 29.2891 184.882 29.2454 184.431 29.3378C183.98 29.4302 183.567 29.6545 183.244 29.9823C182.92 30.3102 182.701 30.7268 182.613 31.1796C182.526 31.6324 182.575 32.1009 182.753 32.526C182.931 32.9511 183.231 33.3137 183.615 33.5678C183.999 33.8219 184.45 33.9563 184.91 33.9538C185.467 33.9498 186.006 33.7527 186.435 33.396L186.542 33.4868V33.7752L188.336 35.5772L188.874 35.0381L187.061 33.233ZM184.91 33.233C184.589 33.2342 184.276 33.1402 184.009 32.9629C183.742 32.7855 183.533 32.5328 183.41 32.2367C183.286 31.9405 183.252 31.6142 183.314 31.2991C183.375 30.9839 183.528 30.6941 183.754 30.4662C183.979 30.2383 184.267 30.0825 184.581 30.0187C184.895 29.9548 185.221 29.9857 185.517 30.1074C185.814 30.2291 186.068 30.4362 186.247 30.7025C186.426 30.9688 186.522 31.2823 186.523 31.6033L186.523 31.6096C186.524 31.8216 186.484 32.0317 186.404 32.228C186.324 32.4242 186.207 32.6029 186.058 32.7536C185.909 32.9043 185.733 33.0243 185.538 33.1065C185.343 33.1888 185.134 33.2317 184.922 33.233C184.918 33.233 184.914 33.233 184.91 33.233Z" fill="#3F3D56"/>
<path opacity="0.6" d="M138.822 59.8558H123.656C122.744 59.8558 121.869 59.4926 121.224 58.8461C120.579 58.1996 120.217 57.3228 120.217 56.4085C120.217 55.4942 120.579 54.6174 121.224 53.9709C121.869 53.3244 122.744 52.9612 123.656 52.9612H138.822C139.734 52.9612 140.609 53.3244 141.254 53.9709C141.899 54.6174 142.261 55.4942 142.261 56.4085C142.261 57.3228 141.899 58.1996 141.254 58.8461C140.609 59.4926 139.734 59.8558 138.822 59.8558Z" fill="#999999"/>
<path d="M185.25 67.3772H122.093C121.595 67.3772 121.118 67.1791 120.767 66.8264C120.415 66.4738 120.217 65.9955 120.217 65.4968C120.217 64.9981 120.415 64.5198 120.767 64.1672C121.118 63.8146 121.595 63.6165 122.093 63.6165H185.25C185.748 63.6165 186.225 63.8146 186.576 64.1672C186.928 64.5198 187.126 64.9981 187.126 65.4968C187.126 65.9955 186.928 66.4738 186.576 66.8264C186.225 67.1791 185.748 67.3772 185.25 67.3772Z" fill="#E6E6E6"/>
<path d="M145.292 74.8987H122.093C121.595 74.8987 121.118 74.7006 120.767 74.3479C120.415 73.9953 120.217 73.517 120.217 73.0183C120.217 72.5196 120.415 72.0413 120.767 71.6887C121.118 71.336 121.595 71.1379 122.093 71.1379H145.292C145.79 71.1379 146.267 71.336 146.619 71.6887C146.971 72.0413 147.168 72.5196 147.168 73.0183C147.168 73.517 146.971 73.9953 146.619 74.3479C146.267 74.7006 145.79 74.8987 145.292 74.8987Z" fill="#E6E6E6"/>
<path opacity="0.6" d="M138.822 143.218H123.656C122.744 143.218 121.869 142.855 121.224 142.209C120.579 141.562 120.217 140.685 120.217 139.771C120.217 138.857 120.579 137.98 121.224 137.333C121.869 136.687 122.744 136.324 123.656 136.324H138.822C139.734 136.324 140.609 136.687 141.254 137.333C141.899 137.98 142.261 138.857 142.261 139.771C142.261 140.685 141.899 141.562 141.254 142.209C140.609 142.855 139.734 143.218 138.822 143.218Z" fill="#999999"/>
<path d="M185.25 150.74H122.093C121.595 150.74 121.118 150.542 120.767 150.189C120.415 149.837 120.217 149.358 120.217 148.86C120.217 148.361 120.415 147.883 120.767 147.53C121.118 147.177 121.595 146.979 122.093 146.979H185.25C185.748 146.979 186.225 147.177 186.576 147.53C186.928 147.883 187.126 148.361 187.126 148.86C187.126 149.358 186.928 149.837 186.576 150.189C186.225 150.542 185.748 150.74 185.25 150.74Z" fill="#E6E6E6"/>
<path d="M145.292 158.261H122.093C121.595 158.261 121.118 158.063 120.767 157.711C120.415 157.358 120.217 156.88 120.217 156.381C120.217 155.882 120.415 155.404 120.767 155.051C121.118 154.699 121.595 154.501 122.093 154.501H145.292C145.79 154.501 146.267 154.699 146.619 155.051C146.971 155.404 147.168 155.882 147.168 156.381C147.168 156.88 146.971 157.358 146.619 157.711C146.267 158.063 145.79 158.261 145.292 158.261Z" fill="#E6E6E6"/>
<path opacity="0.6" d="M138.822 181.766H123.656C122.744 181.766 121.869 181.403 121.224 180.756C120.579 180.11 120.217 179.233 120.217 178.319C120.217 177.404 120.579 176.528 121.224 175.881C121.869 175.235 122.744 174.871 123.656 174.871H138.822C139.734 174.871 140.609 175.235 141.254 175.881C141.899 176.528 142.261 177.404 142.261 178.319C142.261 179.233 141.899 180.11 141.254 180.756C140.609 181.403 139.734 181.766 138.822 181.766Z" fill="#999999"/>
<path d="M185.25 189.287H122.093C121.595 189.287 121.118 189.089 120.767 188.737C120.415 188.384 120.217 187.906 120.217 187.407C120.217 186.908 120.415 186.43 120.767 186.077C121.118 185.725 121.595 185.527 122.093 185.527H185.25C185.748 185.527 186.225 185.725 186.576 186.077C186.928 186.43 187.126 186.908 187.126 187.407C187.126 187.906 186.928 188.384 186.576 188.737C186.225 189.089 185.748 189.287 185.25 189.287Z" fill="#E6E6E6"/>
<path d="M145.292 196.809H122.093C121.595 196.809 121.118 196.611 120.767 196.258C120.415 195.905 120.217 195.427 120.217 194.928C120.217 194.43 120.415 193.951 120.767 193.599C121.118 193.246 121.595 193.048 122.093 193.048H145.292C145.79 193.048 146.267 193.246 146.619 193.599C146.971 193.951 147.168 194.43 147.168 194.928C147.168 195.427 146.971 195.905 146.619 196.258C146.267 196.611 145.79 196.809 145.292 196.809Z" fill="#E6E6E6"/>
<path d="M194.161 123.632H73.4747C72.7701 123.631 72.0946 123.35 71.5964 122.85C71.0981 122.351 70.8179 121.674 70.8171 120.968V88.0613C70.8179 87.3551 71.0981 86.678 71.5963 86.1786C72.0946 85.6792 72.7701 85.3982 73.4747 85.3975H194.161C194.865 85.3983 195.541 85.6792 196.039 86.1786C196.537 86.678 196.818 87.3551 196.818 88.0613V120.968C196.818 121.674 196.537 122.351 196.039 122.85C195.541 123.35 194.865 123.631 194.161 123.632Z" fill="#4CD3A4"/>
<path d="M30.0876 162.781C31.2413 170.894 25.132 206.841 25.8104 206.837L34.5836 206.79C34.8963 206.189 38.9233 186.793 40.1865 183.681C41.9499 179.362 43.7289 174.99 44.423 170.377C45.0764 166.046 44.7544 161.634 44.3292 157.274C44.3489 157.145 44.3377 157.012 44.2963 156.888C44.2549 156.763 44.1845 156.65 44.0911 156.558C43.9976 156.467 43.8837 156.398 43.7588 156.359C43.6338 156.32 43.5014 156.312 43.3725 156.334L31.6009 155.726C29.1746 155.601 28.5993 155.068 28.9683 157.456C29.2247 159.239 29.8312 160.975 30.0876 162.781Z" fill="black"/>
<path d="M32.4013 143.052C30.0094 146.5 27.5019 150.467 28.2961 154.595C28.8995 157.729 31.282 160.157 33.53 162.43C42.5158 171.474 60.2341 211.382 60.2341 211.382C68.7848 205.897 60.0304 211.538 68.7071 205.741C67.938 205.681 50.4635 142.717 49.0159 142.633C43.1598 142.244 38.1073 141.67 32.4013 143.052Z" fill="black"/>
<path d="M41.8619 110.24C40.647 109.154 32.1093 105.805 32.1093 105.805C31.9523 105.785 31.793 105.789 31.6376 105.82C31.1517 105.943 30.93 106.548 31.0338 107.037C31.1376 107.527 30.2862 115.569 30.0668 119.226C29.6824 125.609 33.4324 140.068 33.3994 140.51C33.2709 142.087 32.5822 143.565 31.4584 144.676C31.7504 145.039 50.3007 145.768 51.5625 146.198C51.8172 145.874 50.1262 122.94 50.0483 121.645C49.9186 119.678 43.4657 111.73 41.8619 110.24Z" fill="#E6E6E6"/>
<path d="M28.631 160.003C29.0706 159.784 29.4569 159.471 29.7627 159.086C30.0684 158.701 30.2862 158.253 30.4008 157.774C30.5153 157.296 30.5237 156.798 30.4254 156.316C30.3272 155.833 30.1246 155.379 29.8321 154.983L37.6588 111.566L30.3551 111.469L24.9199 154.404C24.29 154.94 23.8783 155.69 23.763 156.51C23.6476 157.331 23.8366 158.165 24.294 158.856C24.7515 159.546 25.4456 160.044 26.245 160.256C27.0443 160.467 27.8932 160.377 28.631 160.003Z" fill="#FFB8B8"/>
<path d="M28.5681 114.787C28.2635 114.81 27.9601 114.73 27.7052 114.562C27.2706 114.189 30.8161 108.482 31.5165 108.397C33.7957 108.134 36.1407 108.046 38.3512 108.664C40.5617 109.281 42.6408 110.685 43.6288 112.763C44.0415 113.628 41.0494 117.981 39.6893 117.342C38.0604 116.577 30.7129 114.841 28.5681 114.787Z" fill="#E6E6E6"/>
<path d="M36.6129 105.338C41.1437 105.338 44.8167 101.656 44.8167 97.1144C44.8167 92.573 41.1437 88.8914 36.6129 88.8914C32.0821 88.8914 28.4091 92.573 28.4091 97.1144C28.4091 101.656 32.0821 105.338 36.6129 105.338Z" fill="#FFB8B8"/>
<path d="M28.555 110.711C29.6951 110.83 30.8468 110.661 31.9049 110.219C32.963 109.777 33.8936 109.077 34.6116 108.181C35.3297 107.286 35.8122 106.224 36.0151 105.093C36.218 103.962 36.1347 102.798 35.7729 101.708C35.4465 100.724 34.9007 99.8226 34.6018 98.83C34.3028 97.8374 34.2946 96.6637 34.9578 95.868C36.2552 94.311 38.7559 95.2904 40.7561 94.9808C42.8874 94.651 44.5225 92.6015 44.693 90.4466C44.8636 88.2918 43.743 86.1594 42.075 84.7893C40.4069 83.4193 38.2556 82.7447 36.1094 82.5333C33.3532 82.2619 30.5736 82.7063 28.0384 83.8238C25.5032 84.9413 23.2977 86.6942 21.6343 88.9138C19.9709 91.1334 18.9056 93.7448 18.541 96.4967C18.1765 99.2486 18.5249 102.048 19.5527 104.626C20.4494 106.875 21.914 108.969 23.9943 110.201C26.0746 111.432 28.8222 111.669 30.8955 110.426" fill="black"/>
<path d="M116.395 100.44H95.4305C94.0991 100.44 93.0159 98.8939 93.0159 96.993C93.0159 95.0921 94.0991 93.5457 95.4305 93.5457H116.395C117.727 93.5457 118.81 95.0921 118.81 96.993C118.81 98.8939 117.727 100.44 116.395 100.44Z" fill="white"/>
<path d="M172.744 107.962H94.8918C94.3942 107.962 93.9171 107.764 93.5653 107.411C93.2135 107.058 93.0158 106.58 93.0158 106.081C93.0158 105.583 93.2135 105.104 93.5653 104.752C93.9171 104.399 94.3942 104.201 94.8918 104.201H172.744C173.241 104.201 173.718 104.399 174.07 104.752C174.422 105.104 174.62 105.583 174.62 106.081C174.62 106.58 174.422 107.058 174.07 107.411C173.718 107.764 173.241 107.962 172.744 107.962Z" fill="#E6E6E6"/>
<path d="M132.786 115.483H94.8918C94.3942 115.483 93.9171 115.285 93.5653 114.932C93.2135 114.58 93.0158 114.101 93.0158 113.603C93.0158 113.104 93.2135 112.626 93.5653 112.273C93.9171 111.921 94.3942 111.722 94.8918 111.722H132.786C133.284 111.722 133.761 111.921 134.113 112.273C134.464 112.626 134.662 113.104 134.662 113.603C134.662 114.101 134.464 114.58 134.113 114.932C133.761 115.285 133.284 115.483 132.786 115.483Z" fill="#E6E6E6"/>
<path d="M247 219.373H0V220H247V219.373Z" fill="#999999"/>
</g>
<defs>
<clipPath id="clip0_447_768">
<rect width="247" height="220" fill="white"/>
</clipPath>
</defs>
</svg>
