<svg xmlns="http://www.w3.org/2000/svg" width="600" height="600" viewBox="0 0 600 600" version="1.1"><path d="M 273 216.953 L 273 342.238 276.478 347.869 C 278.391 350.966, 280.331 354.064, 280.789 354.754 C 281.613 355.993, 285.260 355.191, 294.265 351.789 L 297.030 350.745 293.509 344.451 L 289.989 338.156 290.245 247.347 L 290.500 156.538 308.404 187.519 C 318.251 204.559, 328.665 222.550, 331.545 227.500 C 334.426 232.450, 338.300 239.159, 340.154 242.409 L 343.525 248.319 417.512 290.520 L 491.500 332.721 491.796 323.111 C 492.072 314.138, 491.944 313.400, 489.876 312 C 488.657 311.175, 459.623 294.495, 425.356 274.934 C 391.088 255.373, 361.399 238.273, 359.380 236.934 C 356.877 235.274, 353.970 231.478, 350.242 225 C 330.070 189.948, 273.664 92.425, 273.365 92.083 C 273.164 91.854, 273 148.045, 273 216.953 M 237.543 224.500 C 237.950 265.475, 237.966 299, 237.579 299 C 237.192 299, 232.066 296.148, 226.188 292.661 C 220.310 289.175, 210.100 283.267, 203.500 279.531 C 196.900 275.796, 173.950 262.510, 152.500 250.006 C 131.050 237.502, 112.487 226.745, 111.250 226.101 L 109 224.930 109 234.273 L 109 243.616 122.750 251.476 C 130.313 255.798, 152.925 268.877, 173 280.539 C 231.231 314.367, 253.148 327, 253.605 327 C 254.017 327, 253.827 253.410, 253.235 183.750 L 252.948 150 244.876 150 L 236.804 150 237.543 224.500 M 109 277.955 L 109 286.911 115.750 290.819 C 133.598 301.154, 158.958 315.638, 162.901 317.749 C 167.432 320.174, 189.300 332.681, 219.993 350.401 C 229.614 355.955, 239.108 361.338, 241.091 362.363 C 243.518 363.616, 245.585 365.904, 247.416 369.363 C 248.912 372.188, 251.073 376.075, 252.220 378 C 254.822 382.370, 274.574 416.444, 296.567 454.500 C 305.785 470.450, 316.290 488.607, 319.913 494.850 L 326.500 506.200 326.758 449.523 C 326.900 418.351, 326.900 367.651, 326.758 336.857 L 326.500 280.869 319.326 285.907 C 315.380 288.678, 311.780 291.520, 311.326 292.223 C 310.872 292.925, 310.275 327.475, 310 369 L 309.500 444.500 307.124 440.500 C 303.640 434.634, 287.078 405.971, 276.210 387 C 254.732 349.508, 257.155 352.802, 246.729 346.918 C 237.416 341.663, 209.788 325.899, 178.500 307.989 C 135.403 283.318, 110.088 269, 109.567 269 C 109.255 269, 109 273.030, 109 277.955 M 345.335 297.492 C 345.701 311.700, 346 351.826, 346 386.662 L 346 450 354.983 450 L 363.965 450 363.317 375.816 L 362.668 301.632 366.084 303.682 C 367.963 304.809, 383 313.521, 399.500 323.042 C 416 332.563, 443.311 348.374, 460.190 358.177 C 477.070 367.979, 491.133 376, 491.440 376 C 491.748 376, 492 371.596, 492 366.213 L 492 356.426 485.750 352.813 C 473.916 345.973, 455.354 335.222, 401.569 304.052 C 371.906 286.862, 346.970 272.542, 346.154 272.229 C 344.856 271.731, 344.754 274.888, 345.335 297.492" stroke="none" fill="#f7f8f8" fill-rule="evenodd"/><path d="M 110.500 1.109 C 90.847 3.941, 67.102 14.192, 50.465 27.027 C 43.086 32.720, 28.162 48.385, 23.340 55.500 C 13.523 69.984, 6.387 86.319, 2.370 103.500 C 0.578 111.166, 0.500 119.402, 0.500 301 L 0.500 490.500 3.135 500 C 10.238 525.612, 20.853 544.450, 37.879 561.666 C 56.671 580.667, 81.986 594.023, 107.710 598.509 C 120.577 600.753, 479.423 600.753, 492.290 598.509 C 510.188 595.387, 529.055 587.580, 544.731 576.806 C 554.485 570.103, 569.922 554.665, 576.731 544.804 C 587.322 529.466, 594.715 511.956, 598.712 492.743 C 600.289 485.163, 600.451 469.707, 600.732 300.500 C 600.913 190.979, 600.667 115.690, 600.124 114.500 C 599.622 113.400, 598.720 109.575, 598.119 106 C 596.446 96.051, 592.511 84.625, 586.563 72.448 C 571.388 41.377, 544.106 17.669, 510.660 6.488 C 490.116 -0.380, 502.282 -0.013, 299.619 0.122 C 198.904 0.189, 113.800 0.633, 110.500 1.109 M 273 216.953 L 273 342.238 276.478 347.869 C 278.391 350.966, 280.331 354.064, 280.789 354.754 C 281.613 355.993, 285.260 355.191, 294.265 351.789 L 297.030 350.745 293.509 344.451 L 289.989 338.156 290.245 247.347 L 290.500 156.538 308.404 187.519 C 318.251 204.559, 328.665 222.550, 331.545 227.500 C 334.426 232.450, 338.300 239.159, 340.154 242.409 L 343.525 248.319 417.512 290.520 L 491.500 332.721 491.796 323.111 C 492.072 314.138, 491.944 313.400, 489.876 312 C 488.657 311.175, 459.623 294.495, 425.356 274.934 C 391.088 255.373, 361.399 238.273, 359.380 236.934 C 356.877 235.274, 353.970 231.478, 350.242 225 C 330.070 189.948, 273.664 92.425, 273.365 92.083 C 273.164 91.854, 273 148.045, 273 216.953 M 0.489 300.500 C 0.490 402.250, 0.607 443.727, 0.750 392.671 C 0.893 341.614, 0.893 258.364, 0.750 207.671 C 0.607 156.977, 0.489 198.750, 0.489 300.500 M 237.543 224.500 C 237.950 265.475, 237.966 299, 237.579 299 C 237.192 299, 232.066 296.148, 226.188 292.661 C 220.310 289.175, 210.100 283.267, 203.500 279.531 C 196.900 275.796, 173.950 262.510, 152.500 250.006 C 131.050 237.502, 112.487 226.745, 111.250 226.101 L 109 224.930 109 234.273 L 109 243.616 122.750 251.476 C 130.313 255.798, 152.925 268.877, 173 280.539 C 231.231 314.367, 253.148 327, 253.605 327 C 254.017 327, 253.827 253.410, 253.235 183.750 L 252.948 150 244.876 150 L 236.804 150 237.543 224.500 M 109 277.955 L 109 286.911 115.750 290.819 C 133.598 301.154, 158.958 315.638, 162.901 317.749 C 167.432 320.174, 189.300 332.681, 219.993 350.401 C 229.614 355.955, 239.108 361.338, 241.091 362.363 C 243.518 363.616, 245.585 365.904, 247.416 369.363 C 248.912 372.188, 251.073 376.075, 252.220 378 C 254.822 382.370, 274.574 416.444, 296.567 454.500 C 305.785 470.450, 316.290 488.607, 319.913 494.850 L 326.500 506.200 326.758 449.523 C 326.900 418.351, 326.900 367.651, 326.758 336.857 L 326.500 280.869 319.326 285.907 C 315.380 288.678, 311.780 291.520, 311.326 292.223 C 310.872 292.925, 310.275 327.475, 310 369 L 309.500 444.500 307.124 440.500 C 303.640 434.634, 287.078 405.971, 276.210 387 C 254.732 349.508, 257.155 352.802, 246.729 346.918 C 237.416 341.663, 209.788 325.899, 178.500 307.989 C 135.403 283.318, 110.088 269, 109.567 269 C 109.255 269, 109 273.030, 109 277.955 M 345.335 297.492 C 345.701 311.700, 346 351.826, 346 386.662 L 346 450 354.983 450 L 363.965 450 363.317 375.816 L 362.668 301.632 366.084 303.682 C 367.963 304.809, 383 313.521, 399.500 323.042 C 416 332.563, 443.311 348.374, 460.190 358.177 C 477.070 367.979, 491.133 376, 491.440 376 C 491.748 376, 492 371.596, 492 366.213 L 492 356.426 485.750 352.813 C 473.916 345.973, 455.354 335.222, 401.569 304.052 C 371.906 286.862, 346.970 272.542, 346.154 272.229 C 344.856 271.731, 344.754 274.888, 345.335 297.492" stroke="none" fill="#1c4c5c" fill-rule="evenodd"/></svg>